<svg width="28" height="28" viewBox="0 0 28 28" fill="none" xmlns="http://www.w3.org/2000/svg">
<path d="M13.9035 15.7069C13.8779 15.7069 13.8396 15.7069 13.814 15.7069C13.7756 15.7069 13.7244 15.7069 13.6861 15.7069C10.7826 15.6174 8.60815 13.3535 8.60815 10.5651C8.60815 7.72555 10.9233 5.41043 13.7628 5.41043C16.6023 5.41043 18.9175 7.72555 18.9175 10.5651C18.9047 13.3662 16.7175 15.6174 13.9419 15.7069C13.9163 15.7069 13.9163 15.7069 13.9035 15.7069ZM13.75 7.31624C11.9593 7.31624 10.514 8.77438 10.514 10.5523C10.514 12.3046 11.8826 13.7244 13.6221 13.7883C13.6605 13.7755 13.7884 13.7755 13.9163 13.7883C15.6302 13.6988 16.9733 12.2918 16.9861 10.5523C16.9861 8.77438 15.5407 7.31624 13.75 7.31624Z" fill="#333333"/>
<path d="M13.7501 27.4998C10.3094 27.4998 7.02218 26.2207 4.47683 23.8928C4.2466 23.6881 4.14427 23.3812 4.16985 23.087C4.33613 21.5649 5.28264 20.1451 6.8559 19.0963C10.6675 16.5637 16.8454 16.5637 20.6443 19.0963C22.2175 20.1579 23.164 21.5649 23.3303 23.087C23.3687 23.394 23.2536 23.6881 23.0233 23.8928C20.478 26.2207 17.1908 27.4998 13.7501 27.4998ZM6.17799 22.8312C8.30125 24.6091 10.9745 25.5812 13.7501 25.5812C16.5257 25.5812 19.1989 24.6091 21.3222 22.8312C21.0919 22.0509 20.478 21.2963 19.5699 20.6823C16.4233 18.5847 11.0896 18.5847 7.91753 20.6823C7.00939 21.2963 6.40822 22.0509 6.17799 22.8312Z" fill="#333333"/>
<path d="M13.75 27.5C6.16512 27.5 0 21.3349 0 13.75C0 6.16512 6.16512 0 13.75 0C21.3349 0 27.5 6.16512 27.5 13.75C27.5 21.3349 21.3349 27.5 13.75 27.5ZM13.75 1.9186C7.22674 1.9186 1.9186 7.22674 1.9186 13.75C1.9186 20.2733 7.22674 25.5814 13.75 25.5814C20.2733 25.5814 25.5814 20.2733 25.5814 13.75C25.5814 7.22674 20.2733 1.9186 13.75 1.9186Z" fill="#333333"/>
</svg>
