<svg width="36" height="36" viewBox="0 0 36 36" fill="none" xmlns="http://www.w3.org/2000/svg">
<g filter="url(#filter0_d_5_33)">
<path d="M9.03936 6.55843C8.79633 6.55843 8.54052 6.4561 8.36145 6.27703C7.99052 5.9061 7.99052 5.29215 8.36145 4.92122L13.0045 0.278198C13.3754 -0.0927325 13.9894 -0.0927325 14.3603 0.278198C14.7312 0.649128 14.7312 1.26308 14.3603 1.63401L9.71726 6.27703C9.5254 6.4561 9.28238 6.55843 9.03936 6.55843Z" fill="#333333"/>
<path d="M26.4606 6.55843C26.2176 6.55843 25.9745 6.46889 25.7827 6.27703L21.1396 1.63401C20.7687 1.26308 20.7687 0.649128 21.1396 0.278198C21.5106 -0.0927325 22.1245 -0.0927325 22.4955 0.278198L27.1385 4.92122C27.5094 5.29215 27.5094 5.9061 27.1385 6.27703C26.9594 6.4561 26.7036 6.55843 26.4606 6.55843Z" fill="#333333"/>
<path d="M28.2512 11.9563C28.1616 11.9563 28.0721 11.9563 27.9826 11.9563H27.6884H7.51744C6.62209 11.9691 5.59884 11.9691 4.85698 11.2272C4.2686 10.6516 4 9.7563 4 8.43886C4 4.92142 6.57093 4.92142 7.79884 4.92142H27.7012C28.9291 4.92142 31.5 4.92142 31.5 8.43886C31.5 9.76909 31.2314 10.6516 30.643 11.2272C29.9779 11.8923 29.0826 11.9563 28.2512 11.9563ZM7.79884 10.0377H27.9953C28.5709 10.0505 29.1081 10.0505 29.2872 9.87142C29.3767 9.78188 29.5686 9.47491 29.5686 8.43886C29.5686 6.99351 29.2105 6.84002 27.6884 6.84002H7.79884C6.27674 6.84002 5.9186 6.99351 5.9186 8.43886C5.9186 9.47491 6.12326 9.78188 6.2 9.87142C6.37907 10.0377 6.92907 10.0377 7.49186 10.0377H7.79884Z" fill="#333333"/>
<path d="M14.8846 21.805C14.3602 21.805 13.9253 21.3701 13.9253 20.8457V16.305C13.9253 15.7806 14.3602 15.3457 14.8846 15.3457C15.409 15.3457 15.8439 15.7806 15.8439 16.305V20.8457C15.8439 21.3829 15.409 21.805 14.8846 21.805Z" fill="#333333"/>
<path d="M20.7684 21.805C20.244 21.805 19.8091 21.3701 19.8091 20.8457V16.305C19.8091 15.7806 20.244 15.3457 20.7684 15.3457C21.2928 15.3457 21.7277 15.7806 21.7277 16.305V20.8457C21.7277 21.3829 21.2928 21.805 20.7684 21.805Z" fill="#333333"/>
<path d="M21.4468 27.4972H13.734C9.15495 27.4972 8.13169 24.7728 7.73518 22.4065L5.93169 11.3425C5.84216 10.8181 6.2003 10.3321 6.72472 10.2425C7.24914 10.153 7.73518 10.5112 7.82472 11.0356L9.62821 22.0867C9.99914 24.3507 10.7666 25.5786 13.734 25.5786H21.4468C24.734 25.5786 25.105 24.4274 25.527 22.2018L27.6759 11.01C27.7782 10.4856 28.277 10.1402 28.8015 10.2553C29.3259 10.3577 29.6584 10.8565 29.5561 11.3809L27.4073 22.5728C26.9084 25.1693 26.077 27.4972 21.4468 27.4972Z" fill="#333333"/>
</g>
<defs>
<filter id="filter0_d_5_33" x="0" y="0" width="35.5" height="35.4972" filterUnits="userSpaceOnUse" color-interpolation-filters="sRGB">
<feFlood flood-opacity="0" result="BackgroundImageFix"/>
<feColorMatrix in="SourceAlpha" type="matrix" values="0 0 0 0 0 0 0 0 0 0 0 0 0 0 0 0 0 0 127 0" result="hardAlpha"/>
<feOffset dy="4"/>
<feGaussianBlur stdDeviation="2"/>
<feComposite in2="hardAlpha" operator="out"/>
<feColorMatrix type="matrix" values="0 0 0 0 0 0 0 0 0 0 0 0 0 0 0 0 0 0 0.25 0"/>
<feBlend mode="normal" in2="BackgroundImageFix" result="effect1_dropShadow_5_33"/>
<feBlend mode="normal" in="SourceGraphic" in2="effect1_dropShadow_5_33" result="shape"/>
</filter>
</defs>
</svg>
