<svg width="16" height="16" viewBox="0 0 16 16" fill="none" xmlns="http://www.w3.org/2000/svg">
<g clip-path="url(#clip0_1610_21)">
<rect width="16" height="16" fill="white"/>
<path d="M6.23233 7.78873L0.929031 2.48543C0.538506 2.0949 0.538506 1.46174 0.929031 1.07121V1.07121C1.31955 0.680689 1.95272 0.680689 2.34324 1.07121L7.64654 6.37451M8.35365 9.91005L13.657 15.2133C14.0475 15.6039 14.6806 15.6039 15.0712 15.2133V15.2133C15.4617 14.8228 15.4617 14.1897 15.0712 13.7991L9.76787 8.49583" stroke="#F1641E"/>
<path d="M8.35339 9.20239L2.34288 15.2129C1.95241 15.6034 1.31934 15.6034 0.928878 15.2129V15.2129C0.538412 14.8224 0.538412 14.1894 0.928878 13.7989L6.93939 7.78839M9.0605 8.49528L15.071 2.48477C15.4615 2.09431 15.4615 1.46124 15.071 1.07077V1.07077C14.6805 0.680305 14.0475 0.680305 13.657 1.07077L7.6465 7.08128" stroke="#F1641E"/>
</g>
<defs>
<clipPath id="clip0_1610_21">
<rect width="16" height="16" fill="white"/>
</clipPath>
</defs>
</svg>
