<svg width="27" height="24" viewBox="0 0 27 24" fill="none" xmlns="http://www.w3.org/2000/svg">
<path d="M13.5 24C13.1107 24 12.734 23.9503 12.42 23.8383C7.62279 22.2093 0 16.4269 0 7.88394C0 3.53161 3.55395 0 7.92419 0C10.0465 0 12.0307 0.820726 13.5 2.28808C14.9693 0.820726 16.9535 0 19.0758 0C23.446 0 27 3.54404 27 7.88394C27 16.4394 19.3772 22.2093 14.58 23.8383C14.266 23.9503 13.8893 24 13.5 24ZM7.92419 1.86529C4.59628 1.86529 1.88372 4.56373 1.88372 7.88394C1.88372 16.3772 10.1344 21.1026 13.0353 22.085C13.2614 22.1596 13.7512 22.1596 13.9772 22.085C16.8656 21.1026 25.1288 16.3896 25.1288 7.88394C25.1288 4.56373 22.4163 1.86529 19.0884 1.86529C17.1795 1.86529 15.4088 2.74819 14.266 4.27772C13.9144 4.75026 13.1107 4.75026 12.7591 4.27772C11.5912 2.73575 9.83302 1.86529 7.92419 1.86529Z" fill="#333333"/>
</svg>
