<svg width="23" height="23" viewBox="0 0 23 23" fill="none" xmlns="http://www.w3.org/2000/svg">
<path d="M0.85 11.75C0.85 17.7628 5.73716 22.65 11.75 22.65C17.7628 22.65 22.65 17.7628 22.65 11.75C22.65 5.73716 17.7628 0.85 11.75 0.85C5.73716 0.85 0.85 5.73716 0.85 11.75ZM2.65 11.75C2.65 6.73284 6.73284 2.65 11.75 2.65C16.7672 2.65 20.85 6.73284 20.85 11.75C20.85 16.7672 16.7672 20.85 11.75 20.85C6.73284 20.85 2.65 16.7672 2.65 11.75Z" fill="#47C7E5" stroke="#47C7E5" stroke-width="0.3"/>
<path d="M13.5902 14.75C13.5902 15.3838 14.1084 15.9 14.7502 15.9C15.385 15.9 15.8902 15.3809 15.8902 14.75C15.8902 14.1172 15.3731 13.6 14.7402 13.6C14.1074 13.6 13.5902 14.1172 13.5902 14.75Z" fill="#47C7E5" stroke="#47C7E5" stroke-width="0.3"/>
<path d="M7.6 8.75C7.6 9.38381 8.11814 9.9 8.76001 9.9C9.39481 9.9 9.9 9.38087 9.9 8.75C9.9 8.11716 9.38284 7.6 8.75 7.6C8.11716 7.6 7.6 8.11716 7.6 8.75Z" fill="#47C7E5" stroke="#47C7E5" stroke-width="0.3"/>
<path d="M8.11388 15.3856C8.2935 15.5652 8.52236 15.6495 8.74997 15.6495C8.97758 15.6495 9.20644 15.5652 9.38607 15.3856L15.3861 9.38558C15.7346 9.037 15.7346 8.46197 15.3861 8.11339C15.0375 7.76481 14.4625 7.76481 14.1139 8.11339L8.11388 14.1134C7.7653 14.462 7.7653 15.037 8.11388 15.3856Z" fill="#47C7E5" stroke="#47C7E5" stroke-width="0.3"/>
</svg>
