<svg width="28" height="28" viewBox="0 0 28 28" fill="none" xmlns="http://www.w3.org/2000/svg">
<path d="M13.75 27.5C6.16512 27.5 0 21.3349 0 13.75C0 6.16512 6.16512 0 13.75 0C21.3349 0 27.5 6.16512 27.5 13.75C27.5 21.3349 21.3349 27.5 13.75 27.5ZM13.75 1.9186C7.22674 1.9186 1.9186 7.22674 1.9186 13.75C1.9186 20.2733 7.22674 25.5814 13.75 25.5814C20.2733 25.5814 25.5814 20.2733 25.5814 13.75C25.5814 7.22674 20.2733 1.9186 13.75 1.9186Z" fill="#F1641E"/>
<path d="M13.75 15.9883C13.2256 15.9883 12.7907 15.5534 12.7907 15.029V8.63362C12.7907 8.1092 13.2256 7.67432 13.75 7.67432C14.2744 7.67432 14.7093 8.1092 14.7093 8.63362V15.029C14.7093 15.5534 14.2744 15.9883 13.75 15.9883Z" fill="#F1641E"/>
<path d="M13.75 20.145C13.5837 20.145 13.4175 20.1066 13.264 20.0427C13.1105 19.9787 12.9698 19.8892 12.8419 19.7741C12.7268 19.6462 12.6372 19.5183 12.5733 19.352C12.5093 19.1985 12.4709 19.0322 12.4709 18.8659C12.4709 18.6997 12.5093 18.5334 12.5733 18.3799C12.6372 18.2264 12.7268 18.0857 12.8419 17.9578C12.9698 17.8427 13.1105 17.7531 13.264 17.6892C13.5709 17.5613 13.9291 17.5613 14.2361 17.6892C14.3896 17.7531 14.5302 17.8427 14.6582 17.9578C14.7733 18.0857 14.8628 18.2264 14.9268 18.3799C14.9907 18.5334 15.0291 18.6997 15.0291 18.8659C15.0291 19.0322 14.9907 19.1985 14.9268 19.352C14.8628 19.5183 14.7733 19.6462 14.6582 19.7741C14.5302 19.8892 14.3896 19.9787 14.2361 20.0427C14.0826 20.1066 13.9163 20.145 13.75 20.145Z" fill="#F1641E"/>
</svg>
