<svg width="28" height="28" viewBox="0 0 28 28" fill="none" xmlns="http://www.w3.org/2000/svg">
<path d="M22.6567 13.7085H18.6667C18.1883 13.7085 17.7917 13.3118 17.7917 12.8335V4.67849C17.7917 3.81516 18.13 3.01016 18.7367 2.4035C19.3433 1.79683 20.1483 1.4585 21.0117 1.4585H21.0233C22.4817 1.47016 23.8583 2.04183 24.9083 3.08016C25.9583 4.14183 26.53 5.54183 26.53 7.00016V9.82349C26.5417 12.1452 24.9783 13.7085 22.6567 13.7085ZM19.5417 11.9585H22.6567C24.01 11.9585 24.7917 11.1768 24.7917 9.82349V7.00016C24.7917 5.99683 24.395 5.04016 23.6833 4.31683C22.9717 3.61683 22.015 3.22016 21.0233 3.2085C21.0233 3.2085 21.0233 3.2085 21.0117 3.2085C20.6267 3.2085 20.2533 3.36016 19.9733 3.64016C19.6933 3.92016 19.5417 4.28183 19.5417 4.67849V11.9585Z" fill="#F1641E"/>
<path d="M10.4997 27.2185C9.95139 27.2185 9.43806 27.0085 9.05306 26.6118L7.11639 24.6635C7.01139 24.5585 6.84805 24.5468 6.73139 24.6402L4.73639 26.1335C4.11805 26.6002 3.30139 26.6818 2.60139 26.3318C1.90139 25.9818 1.46973 25.2818 1.46973 24.5002V7.00016C1.46973 3.47683 3.48806 1.4585 7.01139 1.4585H21.0114C21.4897 1.4585 21.8864 1.85516 21.8864 2.3335C21.8864 2.81183 21.4897 3.2085 21.0114 3.2085C20.2064 3.2085 19.5531 3.86183 19.5531 4.66683V24.5002C19.5531 25.2818 19.1214 25.9818 18.4214 26.3318C17.7214 26.6818 16.9047 26.6118 16.2864 26.1452L14.2914 24.6518C14.1747 24.5585 14.0114 24.5818 13.9181 24.6752L11.9581 26.6352C11.5614 27.0085 11.0481 27.2185 10.4997 27.2185ZM6.89473 22.8318C7.4314 22.8318 7.95639 23.0302 8.35306 23.4385L10.2897 25.3868C10.3597 25.4568 10.4531 25.4685 10.4997 25.4685C10.4881 25.4452 10.6397 25.4568 10.7097 25.3868L12.6697 23.4268C13.3931 22.7035 14.5364 22.6335 15.3414 23.2518L17.3247 24.7335C17.4531 24.8268 17.5697 24.7918 17.6281 24.7568C17.6864 24.7218 17.7914 24.6518 17.7914 24.5002V4.66683C17.7914 4.14183 17.9197 3.64016 18.1414 3.2085H6.99972C4.40972 3.2085 3.20806 4.41016 3.20806 7.00016V24.5002C3.20806 24.6635 3.31306 24.7335 3.37139 24.7685C3.44139 24.8035 3.55806 24.8268 3.67473 24.7335L5.66972 23.2402C6.03139 22.9718 6.46306 22.8318 6.89473 22.8318Z" fill="#F1641E"/>
<path d="M13.7083 12.5415H7.29166C6.81332 12.5415 6.41666 12.1448 6.41666 11.6665C6.41666 11.1882 6.81332 10.7915 7.29166 10.7915H13.7083C14.1867 10.7915 14.5833 11.1882 14.5833 11.6665C14.5833 12.1448 14.1867 12.5415 13.7083 12.5415Z" fill="#F1641E"/>
</svg>
