<svg width="25" height="28" viewBox="0 0 25 28" fill="none" xmlns="http://www.w3.org/2000/svg">
<path d="M1.38373 22.7907C0.849773 22.7907 0.406982 22.3479 0.406982 21.814V7.48837C0.406982 1.74512 2.1521 0 7.89535 0H17.0116C22.7549 0 24.5 1.74512 24.5 7.48837V20.5116C24.5 20.72 24.5 20.9153 24.487 21.1237C24.4479 21.6577 23.9661 22.0744 23.4451 22.0353C22.9112 21.9963 22.4944 21.5274 22.5335 20.9935C22.5465 20.8372 22.5465 20.6679 22.5465 20.5116V7.48837C22.5465 2.83907 21.674 1.95349 17.0116 1.95349H7.89535C3.23303 1.95349 2.36047 2.83907 2.36047 7.48837V21.814C2.36047 22.3479 1.91768 22.7907 1.38373 22.7907Z" fill="#F1641E"/>
<path d="M18.9651 27.9999H5.94187C2.89442 27.9999 0.406982 25.5125 0.406982 22.4651V21.6185C0.406982 19.0269 2.51675 16.9302 5.09535 16.9302H23.5233C24.0572 16.9302 24.5 17.373 24.5 17.9069V22.4651C24.5 25.5125 22.0126 27.9999 18.9651 27.9999ZM5.09535 18.8837C3.58466 18.8837 2.36047 20.1079 2.36047 21.6185V22.4651C2.36047 24.4446 3.96233 26.0465 5.94187 26.0465H18.9651C20.9447 26.0465 22.5465 24.4446 22.5465 22.4651V18.8837H5.09535Z" fill="#F1641E"/>
<path d="M17.6628 8.46521H7.2442C6.71025 8.46521 6.26746 8.02242 6.26746 7.48846C6.26746 6.95451 6.71025 6.51172 7.2442 6.51172H17.6628C18.1968 6.51172 18.6395 6.95451 18.6395 7.48846C18.6395 8.02242 18.1968 8.46521 17.6628 8.46521Z" fill="#F1641E"/>
<path d="M13.7558 13.0233H7.2442C6.71025 13.0233 6.26746 12.5805 6.26746 12.0466C6.26746 11.5126 6.71025 11.0698 7.2442 11.0698H13.7558C14.2898 11.0698 14.7326 11.5126 14.7326 12.0466C14.7326 12.5805 14.2898 13.0233 13.7558 13.0233Z" fill="#F1641E"/>
</svg>
