<svg width="25" height="20" viewBox="0 0 25 20" fill="none" xmlns="http://www.w3.org/2000/svg">
<path d="M19.3212 19.9229H5.44958C2.44083 19.9229 0 17.482 0 14.4733V6.3412C0 3.33245 2.44083 0.891602 5.44958 0.891602H19.3212C22.33 0.891602 24.7708 3.33245 24.7708 6.3412V8.0812C24.7708 8.57662 24.36 8.98745 23.8646 8.98745H21.4237C21.0008 8.98745 20.6142 9.14453 20.3362 9.43453L20.3242 9.44662C19.9858 9.77287 19.8287 10.2199 19.865 10.6791C19.9375 11.4766 20.6987 12.117 21.5687 12.117H23.8646C24.36 12.117 24.7708 12.5278 24.7708 13.0232V14.4612C24.7708 17.482 22.33 19.9229 19.3212 19.9229ZM5.44958 2.7041C3.44375 2.7041 1.8125 4.33536 1.8125 6.3412V14.4733C1.8125 16.4791 3.44375 18.1104 5.44958 18.1104H19.3212C21.3271 18.1104 22.9583 16.4791 22.9583 14.4733V13.9416H21.5687C19.7442 13.9416 18.1975 12.5883 18.0525 10.8483C17.9558 9.85742 18.3183 8.87871 19.0433 8.16579C19.6717 7.52538 20.5175 7.17495 21.4237 7.17495H22.9583V6.3412C22.9583 4.33536 21.3271 2.7041 19.3212 2.7041H5.44958Z" fill="#F1641E"/>
</svg>
