<svg width="22" height="22" viewBox="0 0 22 22" fill="none" xmlns="http://www.w3.org/2000/svg">
<path d="M0.85 10.6399C0.85 16.0335 5.15398 20.4298 10.4471 20.4298C15.7402 20.4298 20.0442 16.0335 20.0442 10.6399C20.0442 5.24622 15.7402 0.85 10.4471 0.85C5.15398 0.85 0.85 5.24622 0.85 10.6399ZM2.5325 10.6399C2.5325 6.18664 6.08123 2.56071 10.4471 2.56071C14.8129 2.56071 18.3617 6.18664 18.3617 10.6399C18.3617 15.0931 14.8129 18.719 10.4471 18.719C6.08123 18.719 2.5325 15.0931 2.5325 10.6399Z" fill="#F1641E" stroke="#F1641E" stroke-width="0.3"/>
<path d="M19.5289 21.1181C19.6966 21.2891 19.9108 21.37 20.1246 21.37C20.3383 21.37 20.5525 21.2891 20.7202 21.1181C21.0446 20.787 21.0446 20.2422 20.7202 19.9112L18.8768 18.0302C18.5508 17.6975 18.0117 17.6975 17.6856 18.0302C17.3612 18.3613 17.3612 18.9061 17.6856 19.2371L19.5289 21.1181Z" fill="#F1641E" stroke="#F1641E" stroke-width="0.3"/>
</svg>
