<svg width="2087" height="250" viewBox="0 0 2087 250" fill="none" xmlns="http://www.w3.org/2000/svg">
<path fill-rule="evenodd" clip-rule="evenodd" d="M5.30457 0C4.51697 91.79 3.72949 90.4478 2.94202 89.1055C2.0144 87.5239 1.08691 85.9424 0.159058 236.561L228.701 237.968C232.158 237.99 235.364 237.281 238.574 235.843C247.553 231.878 256.998 233.15 265.961 234.357L266.367 234.411C273.148 235.327 279.039 235.072 284.823 231.464C296.263 224.248 308.205 218.637 321.402 217.261L321.485 217.252C324.017 216.979 326.425 216.72 328.825 217.744C336.123 220.429 343.483 222.972 350.862 225.522C354.076 226.633 357.293 227.745 360.51 228.87C362.171 229.463 363.707 229.618 365.502 229.192C369.735 227.907 374.347 227.498 378.179 228.979C385.332 231.792 391.489 230.081 397.783 226.768C403.948 223.599 410.106 221.743 416.876 224.262C420.156 225.529 423.606 226.063 427.072 226.6C433.729 227.631 440.445 228.671 446.132 234.936C449.171 238.225 453.849 236.865 458.388 235.545C460.119 235.042 461.829 234.545 463.421 234.313C464.428 234.167 465.422 234.003 466.405 233.841C472.93 232.763 478.989 231.763 485.302 236.488C489.66 239.675 494.582 237.9 499.22 236.228C500.146 235.894 501.059 235.564 501.955 235.279L502.942 234.982C510.695 232.647 518.458 230.31 526.437 231.058C533.475 231.685 540.508 233.185 547.41 235.122C560.321 238.554 573.51 238.489 586.072 236.235C590.059 235.547 593.999 234.283 597.978 233.007C602.954 231.411 607.991 229.795 613.259 229.261C613.597 229.263 613.936 229.103 614.256 228.951C614.542 228.815 614.813 228.688 615.055 228.689C620.026 229.179 625.047 229.044 630.072 228.909C639.405 228.659 648.75 228.408 657.799 232.159C657.945 232.215 658.096 232.276 658.253 232.339C659.329 232.771 660.611 233.287 661.507 232.91C670.366 229.03 680.22 229.819 688.404 231.619C693.291 232.685 698.134 232.715 703.005 232.745C709.094 232.782 715.228 232.82 721.546 234.883C735.346 239.486 751.086 240.895 765.597 233.989C769.064 232.407 772.395 232.136 776.1 233.47C780.698 235.248 785.558 236.152 790.436 234.142C791.206 233.855 792.231 233.715 792.998 234.012C799.31 237.023 805.549 235.97 811.812 234.914C815.682 234.26 819.561 233.605 823.472 233.908C827.874 234.245 832.35 233.924 836.807 233.605C842.844 233.174 848.847 232.745 854.585 233.954C857.82 234.673 860.942 234.061 864.005 233.459C867.964 232.682 871.826 231.924 875.711 234.084C876.221 234.379 877.118 234.238 877.505 233.804C885.273 227.38 893.737 228.116 902.213 228.854C905.954 229.179 909.697 229.505 913.385 229.215C914.188 229.152 914.991 229.099 915.794 229.046C920.109 228.762 924.395 228.48 928.51 226.539C932.748 224.525 936.976 223.968 941.574 225.891C953.954 230.807 966.682 229.62 979.348 228.44C980.795 228.305 982.241 228.17 983.686 228.045C989.835 227.5 995.722 227.973 1001.86 229.906L1002.51 230.102C1011.77 232.873 1021.38 235.752 1031.04 231.397C1031.11 231.37 1031.19 231.337 1031.27 231.303C1031.62 231.16 1032.01 230.994 1032.32 231.114C1039.66 234.904 1046.89 233.293 1054.09 231.688C1058.67 230.669 1063.23 229.653 1067.8 230.021C1073.9 230.472 1079.96 230.125 1086.01 229.779C1090.62 229.515 1095.21 229.252 1099.81 229.343C1106.98 229.471 1114.15 229.979 1121.31 230.487C1126.69 230.868 1132.06 231.249 1137.44 231.47C1137.64 231.471 1137.84 231.473 1138.04 231.476C1139.99 231.5 1141.85 231.522 1143.72 230.342C1151.82 225.292 1160 226.799 1167.79 230.637C1172.51 232.998 1177.25 233.172 1182.12 233.202C1182.29 233.204 1182.5 233.228 1182.71 233.252C1183.27 233.315 1183.85 233.383 1184.04 233.068C1188.87 226.471 1193.99 228.342 1199.15 230.228C1201.03 230.914 1202.91 231.601 1204.79 231.885C1210.34 232.7 1215.82 231.914 1221.32 231.125C1225.05 230.589 1228.8 230.051 1232.58 230.016C1236.17 229.965 1239.79 229.805 1243.4 229.645C1247.02 229.485 1250.64 229.325 1254.23 229.274C1258.96 229.158 1263.19 228.601 1267.69 226.151C1270.69 224.606 1274.13 224.863 1277.65 225.125C1279.71 225.278 1281.8 225.433 1283.83 225.23C1291 224.546 1298.3 224.008 1305.46 226.384C1308.36 227.325 1310.67 225.745 1312.99 224.155C1315.07 222.732 1317.16 221.302 1319.7 221.662C1320.44 221.73 1321.22 221.516 1321.99 221.305C1322.97 221.039 1323.91 220.779 1324.7 221.11C1331.85 224.069 1338.76 224.111 1345.7 220.51C1346.34 220.223 1347.62 220.085 1348.13 220.525C1353.74 226.781 1359.63 224.956 1365.52 223.134C1368.18 222.309 1370.85 221.485 1373.48 221.41C1375.32 221.375 1377.17 220.644 1379.03 219.91C1383 218.344 1387 216.769 1390.89 221.955C1391.14 222.248 1392.81 221.529 1393.84 220.953C1396.67 219.367 1400.39 218.661 1402.55 220.278C1406.89 223.303 1411.19 222.733 1415.52 222.161C1417.29 221.926 1419.07 221.691 1420.85 221.702C1434.94 221.789 1449.27 222.314 1463.22 224.003C1466.22 224.363 1469.21 224.368 1472.21 224.372C1476.9 224.379 1481.58 224.387 1486.26 225.749C1488.18 226.328 1490.18 225.493 1492.27 224.621C1494.47 223.7 1496.77 222.737 1499.2 223.351C1505.72 224.994 1511.87 224.595 1518.29 221.428C1520.85 220.104 1523.66 220.606 1526.59 221.128C1529.4 221.628 1532.31 222.147 1535.2 221.095C1544.05 217.797 1553.66 216.399 1562.75 217.33C1568.12 217.855 1573.44 217.463 1578.75 217.072C1584.43 216.654 1590.09 216.237 1595.78 216.95C1601.16 217.712 1606.41 217.161 1611.54 216.027C1616.7 214.857 1621.92 214.167 1627.16 213.476C1632.71 212.741 1638.29 212.004 1643.84 210.688C1645.8 210.227 1647.89 210.987 1650.03 211.765C1652.5 212.666 1655.05 213.59 1657.53 212.667C1661.23 211.313 1664.77 212.027 1668.28 212.737C1671.09 213.304 1673.88 213.868 1676.73 213.368C1677.24 213.225 1678.01 213.667 1678.39 214.107C1685.51 221.729 1687.82 221.452 1697.07 215.679C1705.68 210.34 1716.46 206.18 1725.02 209.876C1728.65 211.436 1732.32 211.463 1735.9 211.489C1740.13 211.521 1744.25 211.551 1748.04 214.099C1749.06 214.688 1750.21 214.695 1750.99 213.68C1755.72 207.034 1761.02 209.285 1766.05 211.423C1767.07 211.853 1768.07 212.277 1769.05 212.625C1781.06 216.925 1792.81 221.662 1804.56 226.835C1811.07 229.644 1817.34 230.412 1823.88 228.12C1831.71 225.253 1839 227.338 1845.37 231.75C1851.49 236.014 1858.13 238.387 1864.66 238.427C1873.89 238.484 1882.25 241.569 1890.73 244.7C1891.54 245 1892.36 245.3 1893.17 245.598C1897.39 247.228 1901.74 247.837 1906.35 247.866C1934.19 247.964 1962.04 248.136 1989.89 248.307C2017.74 248.479 2045.59 248.65 2073.43 248.749C2075.51 248.762 2076.87 248.709 2077.83 248.673C2079.71 248.601 2080.01 248.589 2081 249.252C2081.83 249.807 2082.09 249.164 2082 249.252C2082.18 249.073 2082.29 249.009 2082.36 248.914C2082.49 248.742 2082.49 248.47 2082.5 247.252C2082.57 238.107 2082.64 228.42 2082.72 218.366C2083.16 159.734 2083.71 88.6074 2083.88 39.7363C2084.59 64.2642 2085.45 70.9976 2086.1 0H2083.91H2083.02H5.30457Z" fill="#47C7E5" fill-opacity="0.1"/>
</svg>
