<svg width="2088" height="167" viewBox="0 0 2088 167" fill="none" xmlns="http://www.w3.org/2000/svg">
<path fill-rule="evenodd" clip-rule="evenodd" d="M2086.32 167C2086.39 151.288 2086.36 140 2086.36 140C2088.39 137.989 2087.39 135.882 2086.39 133.789C2085.82 132.59 2085.26 131.396 2085.26 130.229C2085.26 130.229 2085.68 133.439 2086.36 23.8454C2086.4 17.0292 2086.42 13.7933 2084.84 12.5055C2083.36 11.2876 2080.44 11.8118 2074.77 12.6977C2065.29 14.0967 2055.81 15.2042 2046.2 15.728C2026.22 16.7709 2006.48 20.1471 1986.87 24.107C1971.99 27.2217 1956.88 28.7318 1941.9 28.0565C1927.88 27.4417 1914.18 29.6653 1900.48 31.8897C1895.29 32.7323 1890.09 33.5751 1884.88 34.2637C1871.81 36.0778 1859.02 34.9788 1846.1 33.0046C1825.37 29.8163 1804.63 29.5428 1783.75 31.3088C1775.77 32.0612 1767.79 31.4666 1759.81 30.8719C1759.09 30.8178 1758.36 30.7638 1757.63 30.7107C1752.74 30.3563 1747.87 29.6559 1743 28.9558C1736.93 28.0825 1730.86 27.2098 1724.75 27.0104C1709.97 26.5112 1695.18 26.5119 1680.39 26.5126C1674.05 26.5129 1667.71 26.5133 1661.37 26.4742C1656.81 26.4461 1652.26 26.8527 1647.72 27.259C1640.79 27.8782 1633.88 28.4965 1626.93 27.5737C1605.43 24.6722 1583.79 24.6846 1562.4 26.4475C1539.85 28.2032 1517.31 28.9389 1494.79 28.0714C1489.91 27.9245 1485.06 27.6842 1480.21 27.444C1472.96 27.085 1465.72 26.7264 1458.43 26.6815C1453.72 26.6524 1449 26.7179 1444.28 26.7833C1433.51 26.9329 1422.73 27.0825 1411.96 26.1037C1402.06 25.1453 1392.16 25.0738 1382.26 25.0023C1377.69 24.9693 1373.13 24.9364 1368.56 24.8162C1365.36 24.7156 1362.2 25.0641 1359.04 25.413C1356.5 25.6929 1353.96 25.973 1351.39 26.0221C1346.3 26.0606 1341.18 25.7307 1336.07 25.4016C1330.52 25.0441 1324.99 24.6875 1319.52 24.8056C1306.61 25.1962 1293.7 24.9943 1280.8 24.7926C1261.71 24.4941 1242.65 24.1958 1223.61 25.8179C1190.37 28.651 1157.15 28.0208 1123.93 27.3906C1110.94 27.144 1097.94 26.8974 1084.94 26.8583C1076.98 26.8693 1069 26.5345 1061.02 26.1995C1049.61 25.7206 1038.19 25.2414 1026.81 25.7716C992.152 27.2341 957.504 26.7264 922.855 26.2187C912.31 26.0642 901.764 25.9097 891.219 25.8107C886.818 25.7836 882.432 25.7891 878.05 25.7945C869.3 25.8053 860.57 25.8162 851.784 25.5678C828.357 24.8405 805.051 25.28 781.616 25.8643C774.46 26.0201 767.289 25.9702 760.119 25.9203C746.377 25.8247 732.636 25.7291 718.997 27.0817C705.802 28.3121 692.738 28.9603 679.547 29.3163C676.148 29.4673 672.797 28.9594 669.438 28.4502C667.102 28.0962 664.763 27.7416 662.401 27.6075C657.141 27.3505 651.876 27.9779 646.646 28.601C641.693 29.1911 636.771 29.7775 631.915 29.6058C627.736 29.4344 623.556 29.3601 619.381 29.2858C611.023 29.1371 602.685 28.9888 594.409 28.0631C578.926 26.3646 563.306 26.2684 547.805 27.6303C544.308 27.9546 540.951 27.6129 537.622 27.2741C535.34 27.0418 533.072 26.8108 530.781 26.7967C525.66 26.7652 520.528 26.6232 515.395 26.4812C503.843 26.1617 492.287 25.842 480.845 26.7806C446.989 29.6097 413.149 29.9064 379.234 30.2037C372.469 30.263 365.701 30.3224 358.929 30.4018C351.959 30.4829 345.009 31.0121 338.062 31.5411C328.674 32.2559 319.293 32.9703 309.876 32.5773C308.904 32.5409 307.93 32.5093 306.954 32.4777C298.561 32.2054 290.085 31.9304 281.732 28.6146C277.133 26.8374 271.496 27.3856 266.494 28.8122C253.667 32.5225 240.856 33.6095 227.547 32.5074C227.167 32.4765 226.786 32.4454 226.405 32.4143C217.05 31.6507 207.586 30.8782 198.222 33.2012C194.609 34.0802 191.188 33.309 187.783 32.5413C186.232 32.1917 184.684 31.8428 183.123 31.6507C170.35 29.7403 157.578 27.6878 144.849 25.6423C139.349 24.7583 133.856 23.8756 128.375 23.0062C124.874 22.4578 121.4 23.0366 117.908 23.6185C114.637 24.1634 111.35 24.7112 108.008 24.3381C94.7015 22.7988 81.3948 21.2594 68.218 19.4293C66.4273 19.1268 64.6429 17.8041 63.1146 16.483C54.0708 8.84875 43.7143 6.45308 32.5761 6.23873C23.7426 6.03857 14.6665 3.65079 5.7247 0.243652C4.79687 150.862 3.86939 129.992 2.94191 109.122C2.13664 91.0017 1.33137 72.8816 0.525879 167H2086.32Z" fill="#EDF9FC"/>
</svg>
