<svg width="32" height="32" viewBox="0 0 32 32" fill="none" xmlns="http://www.w3.org/2000/svg">
<path d="M16 32C24.8366 32 32 24.8366 32 16C32 7.16344 24.8366 0 16 0C7.16344 0 0 7.16344 0 16C0 24.8366 7.16344 32 16 32Z" fill="url(#paint0_linear_257_3)"/>
<path fill-rule="evenodd" clip-rule="evenodd" d="M7.16866 16.0269C11.7321 14.0512 14.775 12.7487 16.2976 12.1194C20.6448 10.3225 21.5481 10.0104 22.1369 10.0001C22.2664 9.99784 22.5559 10.0297 22.7435 10.181C22.9018 10.3087 22.9454 10.4812 22.9663 10.6022C22.9871 10.7233 23.0131 10.9991 22.9924 11.2146C22.7569 13.6743 21.7375 19.6433 21.2189 22.3983C20.9995 23.564 20.5674 23.9548 20.1492 23.9931C19.2401 24.0762 18.5498 23.3961 17.6694 22.8225C16.2916 21.9251 15.5133 21.3664 14.176 20.4907C12.6305 19.4786 13.6323 18.9223 14.5131 18.0132C14.7436 17.7753 18.7489 14.1551 18.8264 13.8267C18.8361 13.7856 18.8451 13.6325 18.7536 13.5517C18.6621 13.4708 18.527 13.4985 18.4295 13.5204C18.2913 13.5516 16.0904 14.9972 11.8266 17.8573C11.2019 18.2836 10.636 18.4913 10.129 18.4804C9.57012 18.4684 8.49499 18.1664 7.69573 17.9082C6.71541 17.5915 5.93627 17.4241 6.00412 16.8863C6.03946 16.6062 6.42764 16.3197 7.16866 16.0269Z" fill="white"/>
<defs>
<linearGradient id="paint0_linear_257_3" x1="16" y1="0" x2="16" y2="31.7627" gradientUnits="userSpaceOnUse">
<stop stop-color="#2AABEE"/>
<stop offset="1" stop-color="#229ED9"/>
</linearGradient>
</defs>
</svg>
