<svg width="32" height="32" viewBox="0 0 32 32" fill="none" xmlns="http://www.w3.org/2000/svg">
<path d="M0 15.36C0 8.1192 0 4.49884 2.24942 2.24942C4.49884 0 8.1192 0 15.36 0H16.64C23.8808 0 27.5011 0 29.7506 2.24942C32 4.49884 32 8.1192 32 15.36V16.64C32 23.8808 32 27.5011 29.7506 29.7506C27.5011 32 23.8808 32 16.64 32H15.36C8.1192 32 4.49884 32 2.24942 29.7506C0 27.5011 0 23.8808 0 16.64V15.36Z" fill="#0077FF"/>
<path d="M17.4378 23C10.2629 23 6.17052 18.1201 6 10H9.594C9.71206 15.96 12.3616 18.4845 14.4603 19.005V10H17.8445V15.1401C19.917 14.9189 22.0941 12.5766 22.8287 10H26.2129C25.6488 13.1752 23.2878 15.5175 21.6089 16.4805C23.2878 17.2613 25.9769 19.3043 27 23H23.2747C22.4746 20.5275 20.481 18.6146 17.8445 18.3544V23H17.4378Z" fill="white"/>
</svg>
