<svg width="1900" height="391" viewBox="0 0 1900 391" fill="none" xmlns="http://www.w3.org/2000/svg">
<path d="M1961.73 388.535C1962.1 349.654 1962.34 310.832 1962.58 271.95C1960.28 270.752 1961.44 269.28 1961.45 267.978C1961.97 184.533 1962.48 101.088 1962.99 17.7019C1963.03 12.3164 1963.03 12.4348 1951.37 13.1324C1941.89 13.6658 1932.42 14.0809 1922.81 14.2585C1902.83 14.6089 1883.11 15.9077 1863.51 17.4441C1848.65 18.6546 1833.54 19.2126 1818.56 18.8835C1799.23 18.4685 1780.52 20.2472 1761.57 21.1957C1748.5 21.8846 1735.7 21.3915 1722.77 20.5425C1702.04 19.1719 1681.3 18.9849 1660.42 19.6257C1651.72 19.9272 1643.01 19.5777 1634.31 19.2873C1623.3 18.9236 1612.42 17.8505 1601.41 17.6643C1580.29 17.2974 1559.16 17.3448 1538.03 17.2147C1526.51 17.1437 1515.11 18.1979 1503.59 17.5351C1482.09 16.2782 1460.45 16.2041 1439.06 16.8417C1416.52 17.4723 1393.99 17.6885 1371.45 17.2538C1359.29 17.0605 1347.26 16.6313 1335.09 16.5564C1319.6 16.4609 1304.11 16.7798 1288.62 16.1517C1274.15 15.53 1259.68 15.6776 1245.22 15.4701C1239.46 15.3754 1233.82 15.8733 1228.06 15.897C1217.43 15.8907 1206.68 15.2327 1196.18 15.2864C1164.17 15.5626 1132.16 14.3594 1100.28 15.3466C1054.05 16.7781 1007.83 15.4873 961.61 15.2618C942.276 15.2019 922.82 14.3126 903.484 14.6078C858.282 15.2171 813.088 14.4652 767.893 14.1276C754.705 14.0464 741.645 14.0843 728.458 13.8847C705.029 13.5037 681.725 13.5968 658.293 13.7484C637.422 13.8566 616.427 13.2538 595.68 14.0137C582.489 14.4651 569.427 14.6806 556.239 14.7769C550.476 14.8598 544.847 14.1741 539.086 14.0202C528.844 13.7796 518.594 14.9001 508.608 14.7202C496.062 14.4654 483.513 14.5656 471.097 13.9565C455.609 13.2101 439.989 13.1138 424.493 13.6102C418.602 13.8107 413.1 13.2441 407.466 13.2094C390.821 13.1069 374.052 12.5301 357.532 13.0202C316.935 14.2497 276.348 13.9997 235.631 14.0448C219.242 14.0622 202.975 15.0864 186.588 14.7488C177.242 14.5728 167.767 14.5736 158.43 13.0365C153.825 12.298 148.19 12.5 143.193 13.061C130.38 14.5209 117.573 14.9154 104.26 14.4192C94.5313 14.0633 84.6748 13.6475 74.938 14.5936C69.6852 15.0939 64.8254 14.1762 59.8335 13.9088C41.531 12.7307 23.2293 11.4343 5.05528 10.1979C-1.72802 9.74181 -8.39386 11.0028 -15.3059 10.6643C-28.6179 9.99044 -41.9299 9.31661 -55.1131 8.5252C-56.9049 8.3958 -58.6941 7.85213 -60.2273 7.31004C-69.2988 4.17664 -79.6638 3.16586 -90.8025 3.03806C-99.6365 2.92446 -108.721 1.92156 -117.675 0.505194C-118.429 122.832 -119.182 245.1 -119.936 367.427C-43.7547 367.896 32.4261 368.365 108.607 368.834C112.064 368.856 115.267 368.579 118.471 368.007C127.572 366.406 137.171 366.998 146.259 367.528C153.042 367.924 158.933 367.842 164.703 366.398C176.117 363.509 188.038 361.275 201.23 360.764C203.791 360.662 206.224 360.558 208.654 360.987C219.144 362.591 229.762 364.077 240.38 365.622C242.043 365.869 243.579 365.937 245.372 365.771C249.601 365.264 254.211 365.115 258.049 365.73C265.212 366.899 271.362 366.227 277.644 364.904C283.797 363.64 289.948 362.909 296.728 363.956C306.321 365.495 317.339 364.498 326.021 368.398C330.235 370.259 337.544 368.528 343.308 368.209C350.993 367.783 357.912 366.937 365.197 369.172C370.437 370.743 376.463 369.419 381.845 368.742C389.917 367.786 397.99 366.77 406.31 367.117C413.351 367.397 420.389 368.033 427.298 368.844C440.221 370.285 453.409 370.307 465.962 369.438C474.929 368.842 483.647 367.061 493.124 366.705C493.764 366.709 494.406 366.476 494.918 366.479C509.126 367.1 523.732 365.651 537.673 368.045C538.825 368.229 540.359 368.535 541.385 368.364C550.229 366.82 560.086 367.177 568.276 367.937C579.281 368.952 590.043 367.835 601.429 369.384C615.245 371.304 630.99 371.934 645.476 369.182C648.937 368.553 652.267 368.455 655.976 369.01C660.581 369.749 665.444 370.134 670.315 369.335C671.084 369.222 672.108 369.169 672.876 369.292C683.107 371.308 693.108 369.002 703.349 369.361C713.718 369.721 724.48 368.604 734.462 369.494C741.884 370.191 748.683 368.043 755.587 369.624C756.099 369.745 756.995 369.692 757.381 369.517C768.543 365.798 781.205 368.125 793.243 367.784C798.365 367.638 803.486 367.67 808.358 366.753C812.588 365.951 816.814 365.74 821.419 366.538C835.233 368.813 849.451 368.012 863.538 367.566C869.685 367.368 875.573 367.581 881.714 368.389C891.182 369.571 901.033 370.875 910.903 369.101C911.287 369.044 911.8 368.929 912.184 368.991C924.204 371.55 935.876 368.249 947.653 368.676C958.406 369.039 969.038 368.394 979.664 368.519C992.211 368.655 1004.76 369.265 1017.3 369.52C1019.48 369.533 1021.53 369.605 1023.58 369.085C1031.66 367.063 1039.85 367.706 1047.65 369.292C1052.38 370.269 1057.12 370.357 1061.98 370.387C1062.62 370.391 1063.65 370.515 1063.9 370.34C1070.46 366.711 1077.61 369.477 1084.65 369.935C1093.99 370.525 1103.09 369.279 1112.44 369.277C1119.61 369.262 1126.91 369.07 1134.08 369.055C1138.81 369.025 1143.04 368.815 1147.53 367.836C1152.27 366.859 1158.16 367.724 1163.66 367.521C1170.84 367.27 1178.13 367.078 1185.3 368.069C1190.8 368.813 1194.15 365.875 1199.52 366.204C1201.19 366.273 1203.11 365.752 1204.52 365.998C1211.68 367.225 1218.59 367.268 1225.52 365.831C1226.16 365.717 1227.44 365.665 1227.95 365.846C1236.12 369.566 1244.85 366.364 1253.3 366.298C1259.06 366.274 1264.97 363.47 1270.71 366.583C1270.97 366.703 1272.63 366.417 1273.66 366.187C1276.48 365.553 1280.19 365.28 1282.37 365.944C1288.5 367.699 1294.53 366.552 1300.67 366.59C1314.76 366.677 1329.09 366.943 1343.05 367.679C1350.73 368.082 1358.41 367.537 1366.09 368.472C1370.05 368.97 1374.29 367.043 1379.03 367.546C1385.55 368.237 1391.7 368.098 1398.11 366.835C1403.11 365.801 1409.12 367.613 1415.01 366.762C1423.85 365.455 1433.46 364.922 1442.55 365.333C1453.68 365.816 1464.57 364.7 1475.58 365.3C1480.96 365.629 1486.21 365.425 1491.33 364.983C1501.97 364.042 1512.85 363.932 1523.61 362.933C1527.84 362.544 1532.69 364.468 1537.31 363.786C1543.97 362.821 1550.11 364.575 1556.51 364.141C1557.02 364.085 1557.79 364.268 1558.17 364.448C1565.32 367.569 1567.63 367.465 1576.86 365.155C1585.45 363.018 1596.22 361.368 1604.79 362.9C1612.72 364.31 1620.8 362.762 1627.83 364.699C1628.85 364.942 1630 364.949 1630.77 364.54C1636.42 361.319 1642.94 363.313 1648.83 364.177C1660.85 365.968 1672.62 367.934 1684.39 370.078C1690.91 371.243 1697.18 371.577 1703.72 370.671C1711.53 369.535 1718.83 370.409 1725.22 372.223C1731.35 373.978 1738 374.966 1744.53 375.006C1754.65 375.068 1763.73 376.604 1773.07 378.022C1777.29 378.699 1781.64 378.963 1786.25 378.991C1841.95 379.275 1897.64 379.677 1953.34 379.961C1959.48 379.999 1961.78 380.724 1961.12 383.619C1960.6 385.984 1960.97 388.353 1960.95 390.72C1963.26 390.379 1961.73 389.305 1961.73 388.535Z" fill="#47C7E6"/>
</svg>
