<svg width="1900" height="59" viewBox="0 0 1900 59" fill="none" xmlns="http://www.w3.org/2000/svg">
<path d="M2010.72 84.0115C2010.9 76.6452 2010.94 69.2893 2010.99 61.9221C2008.68 61.6837 2009.84 61.4104 2009.84 61.1638C2009.94 45.353 2010.03 29.5423 2010.13 13.7428C2010.14 12.7224 2010.14 12.7448 1998.49 12.8188C1989.01 12.8726 1979.54 12.9039 1969.93 12.8896C1949.96 12.8563 1930.24 13.004 1910.65 13.1973C1895.79 13.3525 1880.69 13.3827 1865.71 13.2456C1846.37 13.0704 1827.68 13.3141 1808.73 13.3992C1795.67 13.4646 1782.86 13.3072 1769.93 13.0818C1749.19 12.7185 1728.45 12.5795 1707.58 12.5967C1698.87 12.6104 1690.17 12.5007 1681.46 12.4022C1670.45 12.2783 1659.57 12.0206 1648.56 11.9304C1627.43 11.7554 1606.31 11.6589 1585.18 11.5288C1573.66 11.4578 1562.26 11.6006 1550.74 11.4175C1529.23 11.072 1507.59 10.9499 1486.21 10.9639C1463.68 10.9709 1441.14 10.8994 1418.61 10.7045C1406.44 10.6071 1394.41 10.4657 1382.25 10.3908C1366.75 10.2954 1351.26 10.2784 1335.77 10.0821C1321.3 9.89202 1306.83 9.84775 1292.37 9.7362C1286.6 9.68949 1280.97 9.75571 1275.21 9.73143C1264.58 9.67718 1253.83 9.4988 1243.33 9.45655C1211.32 9.34908 1179.31 8.96128 1147.43 8.98915C1101.21 9.02961 1054.99 8.55426 1008.77 8.28075C989.433 8.17287 969.972 7.90722 950.638 7.86661C905.441 7.7564 860.245 7.38828 815.049 7.09865C801.861 7.01741 788.802 6.95939 775.614 6.85573C752.184 6.66654 728.881 6.56785 705.451 6.47958C684.581 6.39588 663.584 6.17682 642.841 6.21725C629.653 6.23693 616.593 6.21255 603.405 6.16495C597.643 6.15189 592.01 5.99384 586.249 5.93592C576.006 5.83918 565.762 6.00035 555.776 5.91641C543.228 5.80547 530.681 5.76182 518.262 5.5844C502.77 5.36562 487.15 5.26939 471.657 5.28609C465.767 5.29467 460.263 5.15983 454.629 5.12513C437.984 5.0226 421.212 4.82957 404.695 4.83996C364.106 4.87027 323.519 4.62025 282.804 4.42551C266.415 4.34698 250.153 4.45986 233.765 4.31406C224.419 4.23405 214.944 4.1869 205.599 3.849C200.991 3.68604 195.357 3.69619 190.363 3.77757C177.558 3.99024 164.754 4.00108 151.439 3.84056C141.708 3.72455 131.85 3.59654 122.118 3.72722C116.868 3.7958 112.004 3.59763 107.011 3.52202C88.7029 3.2074 70.3953 2.87035 52.2156 2.5453C45.4302 2.425 38.7709 2.63068 31.8574 2.53203C18.5424 2.33787 5.22746 2.14371 -7.95931 1.92791C-9.75167 1.89444 -11.5435 1.78248 -13.0793 1.6721C-22.1662 1.03301 -32.536 0.789712 -43.6749 0.709881C-52.5093 0.644247 -61.5987 0.408837 -70.5595 0.0957216C-70.7023 23.2736 -70.845 46.4402 -70.9878 69.618C5.19304 70.0873 81.3739 70.5566 157.555 71.0259C161.012 71.0472 164.213 71.0108 167.414 70.9184C176.507 70.6604 186.109 70.8205 195.199 70.9662C201.984 71.0753 207.874 71.0892 213.637 70.8443C225.036 70.3538 236.946 69.9899 250.134 69.959C252.695 69.9523 255.128 69.9449 257.56 70.0384C268.057 70.3946 278.682 70.7292 289.307 71.075C290.972 71.1301 292.508 71.1507 294.301 71.1281C298.526 71.0532 303.136 71.048 306.976 71.1838C314.145 71.441 320.291 71.3443 326.567 71.1251C332.714 70.9162 338.86 70.8083 345.645 71.0407C355.246 71.3802 366.258 71.2462 374.96 72.0287C379.183 72.4024 386.483 72.1109 392.245 72.0791C399.928 72.0367 406.843 71.9111 414.138 72.371C419.386 72.6949 425.405 72.474 430.783 72.3726C438.851 72.2316 446.918 72.0795 455.24 72.1868C462.282 72.2751 469.323 72.4306 476.236 72.6189C489.166 72.9565 502.354 73.0265 514.902 72.9244C523.865 72.8563 532.574 72.5623 542.049 72.5422C542.689 72.5461 543.33 72.5052 543.842 72.5084C558.053 72.6968 572.651 72.4952 586.604 73.0185C587.756 73.0592 589.292 73.1247 590.317 73.0974C599.153 72.8491 609.011 72.9659 617.205 73.1509C628.215 73.3981 638.971 73.2401 650.364 73.5907C664.19 74.0235 679.938 74.2214 694.409 73.7723C697.867 73.6702 701.196 73.6683 704.908 73.7921C709.516 73.955 714.381 74.0523 719.248 73.9253C720.016 73.9076 721.04 73.9027 721.808 73.9298C732.049 74.363 742.038 73.976 752.281 74.0951C762.651 74.2151 773.408 74.0571 783.393 74.2756C790.819 74.4447 797.607 74.0716 804.519 74.4057C805.031 74.4313 805.928 74.4256 806.312 74.3943C817.455 73.7453 830.128 74.2495 842.164 74.2451C847.286 74.243 852.407 74.2746 857.273 74.1251C861.499 73.9942 865.725 73.9754 870.333 74.1495C884.159 74.6496 898.371 74.5689 912.456 74.5548C918.602 74.5478 924.491 74.6177 930.636 74.8013C940.109 75.0727 949.967 75.369 959.827 75.0821C960.212 75.0732 960.724 75.054 961.108 75.0675C973.14 75.6126 984.795 75.0453 996.574 75.1851C1007.33 75.3074 1017.96 75.2383 1028.58 75.315C1041.13 75.4035 1053.68 75.5817 1066.22 75.6926C1068.4 75.706 1070.45 75.7299 1072.5 75.6416C1080.57 75.2988 1088.76 75.4614 1096.57 75.8011C1101.31 76.0097 1106.04 76.0501 1110.91 76.08C1111.55 76.084 1112.57 76.1127 1112.83 76.0807C1119.36 75.4257 1126.53 75.9856 1133.57 76.1075C1142.92 76.266 1152.01 76.0753 1161.36 76.1217C1168.53 76.1546 1175.82 76.1547 1182.99 76.1877C1187.73 76.2056 1191.96 76.1868 1196.44 76.0238C1201.18 75.8624 1207.07 76.0556 1212.57 76.0447C1219.74 76.0328 1227.04 76.0329 1234.21 76.2565C1239.71 76.4249 1243.05 75.8848 1248.42 75.974C1250.09 75.9954 1252.01 75.9064 1253.42 75.9599C1260.59 76.2283 1267.5 76.2709 1274.42 76.0332C1275.06 76.0147 1276.34 76.0114 1276.85 76.0482C1285.04 76.7939 1293.75 76.2308 1302.2 76.2604C1307.96 76.2847 1313.85 75.7827 1319.61 76.4013C1319.87 76.4253 1321.53 76.3795 1322.56 76.3409C1325.37 76.2349 1329.09 76.2017 1331.26 76.3385C1337.41 76.7015 1343.43 76.5143 1349.57 76.5522C1363.66 76.639 1378 76.7609 1391.95 76.9702C1399.63 77.0849 1407.31 77.02 1415 77.2356C1418.96 77.3497 1423.19 77.0057 1427.93 77.1246C1434.46 77.2882 1440.6 77.2924 1447.01 77.0851C1452 76.9141 1458.02 77.2875 1463.91 77.1556C1472.74 76.9521 1482.35 76.8991 1491.44 77.0224C1502.58 77.1695 1513.46 77.0123 1524.47 77.1811C1529.85 77.2702 1535.1 77.2577 1540.22 77.1996C1550.85 77.0744 1561.73 77.1078 1572.49 76.9722C1576.71 76.9198 1581.58 77.3086 1586.19 77.2024C1592.84 77.0528 1598.99 77.4158 1605.39 77.3655C1605.9 77.3575 1606.67 77.3959 1607.05 77.4319C1614.22 78.0591 1616.53 78.0509 1625.75 77.6591C1634.33 77.2971 1645.08 77.0382 1653.66 77.3713C1661.6 77.6781 1669.67 77.4251 1676.71 77.8273C1677.73 77.8784 1678.88 77.8855 1679.65 77.8118C1685.29 77.2298 1691.82 77.64 1697.7 77.8333C1709.74 78.2326 1721.51 78.664 1733.29 79.129C1739.82 79.3823 1746.09 79.477 1752.62 79.3378C1760.44 79.1617 1767.73 79.3636 1774.13 79.7394C1780.28 80.1025 1786.93 80.3229 1793.46 80.3631C1803.58 80.4254 1812.67 80.7618 1822.01 81.0772C1826.24 81.2266 1830.59 81.2983 1835.2 81.3267C1890.89 81.6586 1946.59 82.0129 2002.28 82.3447C2008.43 82.3826 2010.73 82.5313 2010.09 83.0769C2009.57 83.5222 2009.96 83.9731 2009.95 84.4217C2012.26 84.3686 2010.72 84.1573 2010.72 84.0115Z" fill="#47C7E5" fill-opacity="0.1"/>
</svg>
