<svg width="1900" height="943" viewBox="0 0 1900 943" fill="none" xmlns="http://www.w3.org/2000/svg">
<path d="M1961.3 937.035C1962.02 841.287 1962.61 745.684 1963.2 649.935C1960.91 647.006 1962.09 643.37 1962.1 640.164C1963.37 434.676 1964.64 229.188 1965.9 23.8458C1965.98 10.5839 1965.98 10.8753 1954.32 12.6981C1944.83 14.0971 1935.35 15.2046 1925.75 15.7284C1905.77 16.7713 1886.03 20.1475 1866.41 24.1074C1851.54 27.2221 1836.42 28.7322 1821.45 28.0569C1802.12 27.2092 1783.4 31.7576 1764.43 34.2641C1751.36 36.0782 1738.56 34.9792 1725.64 33.005C1704.92 29.8167 1684.18 29.5432 1663.3 31.3092C1654.59 32.13 1645.88 31.3477 1637.18 30.7111C1626.17 29.9146 1615.31 27.3701 1604.3 27.0108C1583.18 26.2977 1562.05 26.6048 1540.92 26.4746C1529.4 26.4036 1517.99 29.1024 1506.47 27.5741C1484.98 24.6726 1463.34 24.685 1441.95 26.4479C1419.4 28.2036 1396.86 28.9393 1374.33 28.0718C1362.17 27.7054 1350.14 26.7568 1337.98 26.6819C1322.48 26.5864 1306.99 27.5112 1291.5 26.1041C1277.04 24.7034 1262.57 25.1972 1248.1 24.8166C1242.34 24.6354 1236.7 25.9123 1230.94 26.0225C1220.31 26.1028 1209.57 24.5792 1199.06 24.806C1167.05 25.7747 1135.06 23.1 1103.16 25.8183C1056.91 29.76 1010.7 26.9977 964.483 26.8587C945.149 26.8854 925.699 24.8709 906.36 25.772C861.15 27.6796 815.961 26.2353 770.765 25.8111C757.578 25.7299 744.516 25.9409 731.331 25.5682C707.904 24.8409 684.598 25.2803 661.163 25.8647C640.29 26.3191 619.299 25.0238 598.544 27.0821C585.348 28.3125 572.284 28.9607 559.094 29.3167C553.33 29.5727 547.707 27.9349 541.947 27.6079C531.707 27.1076 521.446 29.9592 511.461 29.6062C498.916 29.0917 486.366 29.4517 473.955 28.0635C458.473 26.365 442.852 26.2688 427.351 27.6307C421.458 28.1774 415.961 26.8318 410.327 26.7971C393.683 26.6946 376.917 25.4254 360.392 26.781C319.782 30.1744 279.195 29.9244 238.475 30.4022C222.085 30.5928 205.808 33.2616 189.423 32.5777C180.078 32.2286 170.602 32.316 161.278 28.615C156.68 26.8378 151.043 27.386 146.04 28.8126C133.214 32.5229 120.403 33.6099 107.093 32.5077C97.3673 31.7191 87.514 30.784 77.7681 33.2015C72.5106 34.4808 67.6587 32.2648 62.6689 31.6511C44.3761 28.9151 26.085 25.8876 7.92111 23.0066C1.14155 21.9446 -5.53603 25.1098 -12.4454 24.3385C-25.7521 22.7992 -39.0588 21.2598 -52.2356 19.4297C-54.0263 19.1272 -55.8107 17.8045 -57.339 16.4834C-66.3828 8.84916 -76.7393 6.45349 -87.8774 6.23914C-96.711 6.03898 -105.787 3.65121 -114.729 0.244069C-116.585 301.481 -118.439 602.571 -120.295 903.808C-44.1141 904.277 32.0667 904.746 108.248 905.216C111.704 905.237 114.91 904.528 118.12 903.09C127.235 899.066 136.83 900.436 145.913 901.658C152.694 902.575 158.585 902.319 164.369 898.712C175.809 891.495 187.751 885.885 200.948 884.508C203.51 884.233 205.945 883.956 208.371 884.991C218.847 888.845 229.452 892.408 240.057 896.117C241.717 896.71 243.253 896.866 245.048 896.439C249.281 895.154 253.893 894.745 257.725 896.226C264.878 899.039 271.035 897.328 277.329 894.015C283.495 890.847 289.652 888.99 296.423 891.509C306.003 895.212 317.03 892.656 325.678 902.183C329.875 906.727 337.2 902.4 342.967 901.561C350.656 900.442 357.584 898.299 364.849 903.736C370.075 907.557 376.113 904.242 381.501 902.527C389.583 900.099 397.665 897.525 405.983 898.305C413.021 898.932 420.054 900.432 426.956 902.369C439.867 905.801 453.056 905.737 465.617 903.482C474.59 901.934 483.324 897.47 492.805 896.508C493.445 896.512 494.089 895.933 494.601 895.936C508.805 897.336 523.424 893.636 537.345 899.406C538.494 899.85 540.026 900.588 541.053 900.157C549.912 896.277 559.766 897.066 567.95 898.866C578.946 901.265 589.719 898.417 601.092 902.13C614.892 906.734 630.632 908.142 645.143 901.236C648.61 899.654 651.941 899.383 655.646 900.718C660.244 902.495 665.104 903.399 669.982 901.389C670.752 901.102 671.777 900.963 672.544 901.259C682.757 906.131 692.779 900.363 703.018 901.155C713.384 901.948 724.157 899.099 734.131 901.201C741.547 902.85 748.366 897.5 755.257 901.331C755.767 901.626 756.664 901.486 757.051 901.051C768.248 891.792 780.889 897.408 792.931 896.462C798.055 896.057 803.176 896.088 808.056 893.786C812.293 891.772 816.522 891.215 821.12 893.138C834.914 898.616 849.14 896.517 863.232 895.292C869.381 894.747 875.268 895.221 881.402 897.153C890.859 899.98 900.699 903.102 910.586 898.645C910.971 898.501 911.485 898.213 911.868 898.361C923.865 904.556 935.568 896.321 947.342 897.268C958.092 898.063 968.73 896.379 979.356 896.591C991.902 896.814 1004.44 898.202 1016.99 898.717C1019.16 898.73 1021.21 898.889 1023.27 897.59C1031.36 892.539 1039.55 894.047 1047.34 897.884C1052.06 900.245 1056.8 900.42 1061.66 900.45C1062.3 900.454 1063.32 900.751 1063.58 900.316C1070.17 891.32 1077.3 898.068 1084.33 899.132C1093.67 900.501 1102.78 897.351 1112.13 897.263C1119.3 897.161 1126.6 896.623 1133.77 896.522C1138.51 896.405 1142.74 895.848 1147.24 893.398C1151.99 890.95 1157.87 893.027 1163.37 892.477C1170.55 891.793 1177.85 891.255 1185.01 893.631C1190.5 895.414 1193.87 888.147 1199.25 888.909C1200.91 889.065 1202.84 887.765 1204.24 888.357C1211.4 891.316 1218.31 891.358 1225.25 887.758C1225.89 887.47 1227.17 887.332 1227.68 887.773C1235.82 896.859 1244.57 888.897 1253.03 888.657C1258.79 888.547 1264.72 881.588 1270.44 889.202C1270.69 889.495 1272.36 888.777 1273.39 888.2C1276.21 886.614 1279.93 885.908 1282.1 887.525C1288.22 891.789 1294.25 888.911 1300.4 888.949C1314.48 889.036 1328.82 889.562 1342.77 891.251C1350.44 892.172 1358.13 890.762 1365.8 892.996C1369.76 894.186 1374.02 889.403 1378.75 890.598C1385.27 892.241 1391.42 891.842 1397.84 888.675C1402.85 886.083 1408.84 890.492 1414.74 888.342C1423.6 885.044 1433.21 883.646 1442.29 884.577C1453.43 885.665 1464.33 882.818 1475.33 884.197C1480.7 884.959 1485.96 884.408 1491.09 883.274C1501.73 880.862 1512.61 880.492 1523.38 877.935C1527.62 876.941 1532.45 881.634 1537.07 879.914C1543.75 877.477 1549.86 881.742 1556.27 880.615C1556.79 880.473 1557.55 880.914 1557.93 881.354C1565.06 888.977 1567.36 888.699 1576.62 882.927C1585.23 877.587 1596.01 873.427 1604.57 877.123C1612.48 880.524 1620.57 876.639 1627.59 881.346C1628.61 881.935 1629.76 881.942 1630.54 880.927C1636.22 872.946 1642.72 877.796 1648.6 879.872C1660.6 884.173 1672.35 888.909 1684.1 894.082C1690.62 896.891 1696.88 897.659 1703.43 895.367C1711.26 892.5 1718.54 894.586 1724.92 898.997C1731.04 903.261 1737.68 905.634 1744.21 905.674C1754.32 905.737 1763.39 909.436 1772.72 912.846C1776.93 914.475 1781.28 915.084 1785.89 915.113C1841.59 915.31 1897.28 915.799 1952.98 915.996C1959.13 916.034 1961.42 917.797 1960.73 924.934C1960.19 930.761 1960.53 936.592 1960.5 942.422C1962.81 941.562 1961.29 938.929 1961.3 937.035Z" fill="#47C7E5" fill-opacity="0.1"/>
</svg>
