<svg width="1900" height="869" viewBox="0 0 1900 869" fill="none" xmlns="http://www.w3.org/2000/svg">
<path d="M1961.75 863.791C1962.42 775.623 1962.97 687.588 1963.51 599.419C1961.22 596.721 1962.39 593.373 1962.41 590.421C1963.58 401.2 1964.74 211.98 1965.91 22.8936C1965.98 10.6815 1965.98 10.9499 1954.32 12.6227C1944.84 13.9063 1935.35 14.9216 1925.75 15.3992C1905.77 16.3498 1886.03 19.4491 1866.42 23.086C1851.55 25.9469 1836.43 27.33 1821.45 26.7009C1802.13 25.9108 1783.41 30.09 1764.44 32.3889C1751.37 34.053 1738.57 33.0348 1725.65 31.2105C1704.93 28.2646 1684.19 28.0026 1663.31 29.6186C1654.6 30.3702 1645.89 29.6456 1637.19 29.0551C1626.18 28.3163 1615.32 25.9679 1604.31 25.6317C1583.18 24.9647 1562.06 25.2372 1540.93 25.107C1529.41 25.0361 1518 27.5156 1506.48 26.1027C1484.99 23.4204 1463.35 23.4213 1441.96 25.0342C1419.41 26.6399 1396.87 27.3063 1374.34 26.4965C1362.18 26.1532 1350.15 25.2739 1337.99 25.1989C1322.49 25.1035 1307 25.9475 1291.51 24.6442C1277.05 23.3473 1262.58 23.795 1248.11 23.4375C1242.35 23.2678 1236.71 24.4409 1230.95 24.5396C1220.32 24.6083 1209.57 23.2001 1199.07 23.4038C1167.06 24.2802 1135.06 21.8016 1103.17 24.2892C1056.92 27.8963 1010.71 25.3302 964.493 25.1797C945.159 25.1948 925.709 23.3303 906.37 24.1506C861.161 25.8852 815.971 24.5331 770.776 24.1205C757.588 24.0393 744.527 24.2272 731.341 23.8776C707.914 23.1965 684.608 23.5897 661.174 24.1164C640.301 24.5246 619.309 23.3217 598.555 25.2069C585.36 26.3335 572.297 26.924 559.107 27.2454C553.343 27.4783 547.719 25.9674 541.959 25.6635C531.719 25.1978 521.459 27.8187 511.474 27.4888C498.929 27.0089 486.379 27.3342 473.967 26.0499C458.484 24.4783 442.864 24.382 427.364 25.6286C421.471 26.1291 415.973 24.8874 410.339 24.8527C393.694 24.7502 376.928 23.5733 360.404 24.8135C319.796 27.9185 279.209 27.6684 238.49 28.0886C222.099 28.2561 205.823 30.7057 189.438 30.0679C180.093 29.7419 170.618 29.8178 161.292 26.4052C156.693 24.7665 151.056 25.2685 146.054 26.5798C133.229 29.9901 120.419 30.9848 107.109 29.9634C97.3826 29.2324 87.5289 28.3665 77.7842 30.588C72.5273 31.7634 67.6744 29.7205 62.6843 29.1529C44.3902 26.6245 26.0977 23.8278 7.93245 21.166C1.15239 20.1848 -5.52362 23.0962 -12.4334 22.3826C-25.7408 20.9586 -39.0481 19.5345 -52.2258 17.8429C-54.0166 17.5635 -55.8017 16.3447 -57.3307 15.1274C-66.3782 8.09306 -76.7358 5.88199 -87.874 5.67917C-96.7076 5.49055 -105.785 3.28737 -114.728 0.145583C-116.437 277.535 -118.145 554.79 -119.854 832.179C-43.6729 832.648 32.508 833.118 108.689 833.587C112.146 833.608 115.351 832.957 118.56 831.635C127.673 827.933 137.269 829.2 146.353 830.33C153.133 831.177 159.025 830.944 164.807 827.625C176.243 820.985 188.183 815.825 201.379 814.564C203.941 814.311 206.375 814.058 208.802 815.012C219.28 818.566 229.887 821.852 240.493 825.273C242.154 825.82 243.69 825.964 245.485 825.572C249.717 824.39 254.329 824.016 258.162 825.382C265.316 827.976 271.472 826.403 277.764 823.355C283.928 820.441 290.085 818.734 296.856 821.057C306.438 824.471 317.464 822.124 326.117 830.9C330.317 835.086 337.639 831.105 343.406 830.336C351.095 829.309 358.021 827.339 365.288 832.349C370.516 835.871 376.553 832.821 381.94 831.244C390.021 829.012 398.102 826.646 406.42 827.369C413.458 827.949 420.492 829.334 427.395 831.121C440.308 834.288 453.496 834.235 466.057 832.165C475.028 830.744 483.76 826.637 493.241 825.756C493.881 825.76 494.524 825.227 495.037 825.231C509.241 826.526 523.858 823.127 537.782 828.446C538.932 828.856 540.464 829.536 541.491 829.14C550.348 825.571 560.202 826.303 568.386 827.964C579.384 830.179 590.156 827.561 601.53 830.986C615.332 835.232 631.073 836.536 645.581 830.184C649.047 828.729 652.377 828.481 656.083 829.712C660.682 831.351 665.543 832.186 670.42 830.337C671.19 830.073 672.215 829.945 672.981 830.219C683.197 834.71 693.216 829.404 703.455 830.138C713.822 830.873 724.593 828.255 734.568 830.195C741.985 831.717 748.802 826.794 755.694 830.325C756.205 830.597 757.102 830.468 757.488 830.068C768.68 821.548 781.324 826.726 793.365 825.86C798.489 825.489 803.611 825.521 808.489 823.404C812.726 821.551 816.955 821.04 821.553 822.813C835.35 827.864 849.574 825.938 863.666 824.817C869.815 824.318 875.702 824.757 881.837 826.54C891.296 829.148 901.137 832.027 911.021 827.927C911.406 827.795 911.92 827.53 912.303 827.667C924.304 833.377 936.002 825.8 947.776 826.677C958.527 827.415 969.164 825.87 979.79 826.069C992.337 826.281 1004.88 827.566 1017.42 828.046C1019.6 828.059 1021.65 828.206 1023.7 827.011C1031.8 822.364 1039.98 823.756 1047.77 827.293C1052.5 829.47 1057.23 829.633 1062.1 829.663C1062.74 829.667 1063.76 829.942 1064.02 829.541C1070.6 821.261 1077.73 827.478 1084.77 828.461C1094.11 829.726 1103.22 826.83 1112.56 826.753C1119.73 826.663 1127.04 826.171 1134.21 826.081C1138.94 825.976 1143.17 825.465 1147.67 823.212C1152.42 820.959 1158.3 822.874 1163.81 822.372C1170.98 821.745 1178.28 821.253 1185.44 823.444C1190.93 825.089 1194.3 818.399 1199.68 819.103C1201.34 819.248 1203.27 818.052 1204.67 818.597C1211.83 821.325 1218.74 821.368 1225.68 818.056C1226.32 817.791 1227.6 817.665 1228.11 818.071C1236.25 826.441 1245 819.114 1253.46 818.898C1259.22 818.799 1265.15 812.394 1270.87 819.408C1271.12 819.678 1272.79 819.017 1273.82 818.486C1276.64 817.027 1280.36 816.379 1282.53 817.869C1288.65 821.799 1294.68 819.152 1300.83 819.19C1314.91 819.276 1329.25 819.767 1343.2 821.329C1350.87 822.182 1358.56 820.887 1366.23 822.948C1370.2 824.046 1374.45 819.643 1379.18 820.746C1385.7 822.262 1391.85 821.897 1398.27 818.985C1403.28 816.6 1409.27 820.663 1415.17 818.686C1424.02 815.654 1433.64 814.371 1442.72 815.232C1453.85 816.24 1464.75 813.623 1475.76 814.899C1481.13 815.603 1486.38 815.099 1491.51 814.057C1502.15 811.841 1513.04 811.505 1523.81 809.156C1528.04 808.242 1532.88 812.567 1537.5 810.985C1544.17 808.744 1550.29 812.674 1556.7 811.64C1557.21 811.509 1557.98 811.916 1558.36 812.321C1565.49 819.344 1567.79 819.089 1577.04 813.778C1585.65 808.866 1596.43 805.04 1604.99 808.448C1612.91 811.583 1621 808.01 1628.01 812.348C1629.03 812.891 1630.19 812.898 1630.96 811.963C1636.64 804.617 1643.14 809.086 1649.02 811.001C1661.03 814.967 1672.78 819.334 1684.53 824.103C1691.05 826.693 1697.32 827.403 1703.86 825.296C1711.69 822.66 1718.97 824.584 1725.35 828.649C1731.47 832.579 1738.12 834.767 1744.65 834.807C1754.76 834.869 1763.83 838.28 1773.16 841.424C1777.37 842.927 1781.72 843.49 1786.33 843.519C1842.03 843.728 1897.72 844.205 1953.42 844.414C1959.57 844.452 1961.86 846.076 1961.18 852.648C1960.63 858.013 1960.99 863.383 1960.95 868.751C1963.26 867.96 1961.74 865.535 1961.75 863.791Z" fill="#47C7E5" fill-opacity="0.1"/>
</svg>
