<svg width="320" height="394" viewBox="0 0 320 394" fill="none" xmlns="http://www.w3.org/2000/svg">
<path d="M433.881 391.164C434.162 351.035 434.408 310.966 434.656 270.836C434.053 269.611 434.368 268.086 434.376 266.742C434.906 180.619 435.437 94.4957 435.967 8.43354C436.001 2.87523 436.001 2.99739 432.912 3.77244C430.401 4.36779 427.89 4.84099 425.347 5.06966C420.058 5.52574 414.831 6.95952 409.636 8.63783C405.697 9.95738 401.694 10.6046 397.731 10.3359C392.617 9.99897 387.657 11.9231 382.635 12.9916C379.174 13.7644 375.788 13.3159 372.371 12.5008C366.889 11.1843 361.4 11.0894 355.872 11.8494C353.566 12.2017 351.263 11.8821 348.961 11.6236C346.048 11.3003 343.174 10.2441 340.261 10.104C334.671 9.82527 329.079 9.97407 323.488 9.93963C320.439 9.92084 317.416 11.0628 314.37 10.4332C308.684 9.23761 302.957 9.26341 297.293 10.0226C291.325 10.7799 285.359 11.1096 279.397 10.7675C276.178 10.6255 272.995 10.2394 269.776 10.2196C265.676 10.1943 261.573 10.5966 257.477 10.0217C253.651 9.44834 249.82 9.66907 245.992 9.52333C244.468 9.45285 242.973 9.99339 241.448 10.0451C238.635 10.0888 235.793 9.4605 233.013 9.56554C224.539 10.002 216.074 8.91145 207.629 10.0811C195.386 11.7771 183.159 10.6633 170.926 10.6491C165.809 10.6786 160.664 9.85285 155.544 10.2489C143.577 11.0914 131.619 10.5291 119.657 10.3943C116.167 10.3728 112.71 10.4737 109.221 10.33C103.021 10.0475 96.8527 10.2538 90.6498 10.521C85.1249 10.7313 79.5708 10.2085 74.0757 11.0909C70.5821 11.6191 67.124 11.9032 63.6327 12.0649C62.1071 12.1777 60.6202 11.4966 59.0962 11.3651C56.3864 11.1651 53.6681 12.37 51.0258 12.2316C47.7062 12.0279 44.3843 12.1907 41.1008 11.6207C37.0048 10.9236 32.8708 10.8981 28.7669 11.4837C27.2067 11.7184 25.753 11.1597 24.262 11.1505C19.857 11.1234 15.421 10.6074 11.046 11.1912C0.294967 12.6521 -10.4467 12.5859 -21.2241 12.8249C-25.5622 12.9204 -29.8728 14.0544 -34.2086 13.7834C-36.6814 13.646 -39.1893 13.6916 -41.6536 12.1493C-42.8689 11.4089 -44.3614 11.644 -45.6867 12.2467C-49.085 13.8139 -52.4765 14.2817 -55.998 13.8324C-58.5714 13.5111 -61.1783 13.1286 -63.76 14.1511C-65.1526 14.6922 -66.4346 13.7681 -67.7547 13.5156C-72.5935 12.3863 -77.4316 11.1349 -82.2361 9.94471C-84.0294 9.50609 -85.7997 10.839 -87.6277 10.5223C-91.148 9.88981 -94.6683 9.2573 -98.1539 8.50284C-98.6276 8.37776 -99.0986 7.82511 -99.5018 7.27288C-101.888 4.08189 -104.627 3.0877 -107.574 3.00846C-109.912 2.93297 -112.312 1.94087 -114.675 0.521409C-115.453 126.774 -116.23 252.966 -117.008 379.219C-96.8464 379.343 -76.6846 379.468 -56.5229 379.592C-55.608 379.597 -54.7589 379.297 -53.908 378.692C-51.4917 376.996 -48.9536 377.562 -46.5508 378.065C-44.7571 378.443 -43.1976 378.33 -41.6634 376.812C-38.6288 373.777 -35.4628 371.414 -31.9688 370.825C-31.2904 370.707 -30.6458 370.589 -30.0046 371.02C-27.2358 372.626 -24.4324 374.109 -21.6293 375.653C-21.1903 375.9 -20.784 375.964 -20.3085 375.783C-19.1869 375.241 -17.9659 375.065 -16.9531 375.682C-15.0627 376.854 -13.4317 376.131 -11.7626 374.737C-10.1279 373.403 -8.49647 372.619 -6.70695 373.668C-4.17495 375.211 -1.25405 374.129 1.0257 378.114C2.13225 380.014 4.075 378.194 5.60209 377.837C7.63822 377.36 9.47368 376.456 11.3912 378.727C12.7707 380.324 14.372 378.929 15.7997 378.205C17.9409 377.18 20.0824 376.093 22.2831 376.412C24.1453 376.668 26.0052 377.29 27.8301 378.096C31.2439 379.522 34.7344 379.482 38.0612 378.525C40.4373 377.868 42.7532 375.989 45.2633 375.577C45.4328 375.578 45.6037 375.334 45.7393 375.335C49.4971 375.908 53.3698 374.344 57.0487 376.749C57.3525 376.934 57.7573 377.242 58.0295 377.06C60.3777 375.425 62.985 375.747 65.1491 376.493C68.0573 377.488 70.9111 376.284 73.9175 377.83C77.5655 379.746 81.73 380.321 85.5771 377.413C86.4961 376.747 87.3779 376.63 88.3572 377.186C89.5725 377.926 90.8579 378.301 92.1509 377.454C92.3549 377.333 92.6264 377.273 92.8289 377.397C95.5273 379.429 98.1854 377.002 100.894 377.324C103.637 377.646 106.491 376.442 109.129 377.314C111.09 377.998 112.9 375.749 114.72 377.348C114.855 377.471 115.092 377.412 115.195 377.229C118.167 373.338 121.508 375.68 124.695 375.272C126.052 375.097 127.407 375.105 128.701 374.136C129.825 373.288 130.944 373.05 132.159 373.852C135.805 376.134 139.572 375.241 143.303 374.714C144.931 374.48 146.488 374.673 148.11 375.477C150.61 376.653 153.211 377.952 155.832 376.074C155.934 376.014 156.071 375.893 156.172 375.954C159.341 378.539 162.446 375.077 165.561 375.462C168.406 375.785 171.223 375.07 174.035 375.148C177.355 375.23 180.673 375.8 183.992 376.004C184.569 376.007 185.11 376.071 185.656 375.525C187.804 373.4 189.969 374.025 192.026 375.625C193.274 376.61 194.527 376.679 195.815 376.687C195.984 376.688 196.254 376.812 196.323 376.629C198.075 372.853 199.955 375.674 201.816 376.113C204.286 376.678 206.701 375.349 209.175 375.304C211.072 375.254 213.005 375.022 214.903 374.972C216.158 374.919 217.277 374.682 218.47 373.65C219.73 372.62 221.283 373.485 222.742 373.249C224.641 372.955 226.574 372.723 228.466 373.712C229.918 374.454 230.818 371.405 232.239 371.72C232.68 371.783 233.191 371.237 233.563 371.483C235.453 372.717 237.282 372.728 239.122 371.212C239.292 371.091 239.631 371.032 239.765 371.216C241.911 375.017 244.236 371.671 246.473 371.563C247.998 371.511 249.575 368.589 251.08 371.775C251.147 371.897 251.59 371.594 251.862 371.352C252.612 370.684 253.596 370.385 254.168 371.061C255.784 372.842 257.384 371.63 259.01 371.64C262.738 371.663 266.532 371.87 270.221 372.564C272.252 372.943 274.289 372.345 276.316 373.274C277.364 373.769 278.494 371.76 279.745 372.257C281.469 372.939 283.097 372.766 284.799 371.432C286.128 370.341 287.709 372.183 289.273 371.277C291.62 369.886 294.165 369.291 296.569 369.673C299.514 370.118 302.402 368.914 305.313 369.482C306.734 369.796 308.125 369.56 309.483 369.08C312.302 368.059 315.184 367.894 318.037 366.812C319.158 366.391 320.433 368.354 321.658 367.628C323.426 366.601 325.042 368.382 326.739 367.904C326.875 367.843 327.077 368.028 327.177 368.212C329.055 371.4 329.666 371.281 332.121 368.853C334.405 366.607 337.262 364.853 339.523 366.394C341.616 367.812 343.761 366.176 345.612 368.142C345.882 368.388 346.187 368.39 346.393 367.964C347.904 364.613 349.62 366.64 351.174 367.504C354.348 369.295 357.453 371.269 360.558 373.426C362.279 374.597 363.937 374.913 365.671 373.946C367.746 372.738 369.672 373.605 371.355 375.447C372.971 377.229 374.727 378.217 376.455 378.228C379.132 378.244 381.528 379.786 383.993 381.206C385.107 381.885 386.258 382.136 387.478 382.144C402.218 382.173 416.958 382.325 431.698 382.355C433.325 382.365 433.93 383.102 433.742 386.094C433.592 388.536 433.678 390.98 433.663 393.423C434.276 393.06 433.876 391.958 433.881 391.164Z" fill="#47C7E6"/>
</svg>
