<svg width="32" height="23" viewBox="0 0 32 23" fill="none" xmlns="http://www.w3.org/2000/svg">
<path d="M31.3309 3.59097C31.15 2.89646 30.7934 2.26261 30.297 1.75285C29.8005 1.24309 29.1814 0.8753 28.5018 0.68629C26 8.10751e-08 16 0 16 0C16 0 6 8.10751e-08 3.49818 0.68629C2.81857 0.8753 2.19955 1.24309 1.70305 1.75285C1.20655 2.26261 0.850007 2.89646 0.669091 3.59097C7.94729e-08 6.15435 0 11.5 0 11.5C0 11.5 7.94729e-08 16.8456 0.669091 19.409C0.850007 20.1035 1.20655 20.7374 1.70305 21.2471C2.19955 21.7569 2.81857 22.1247 3.49818 22.3137C6 23 16 23 16 23C16 23 26 23 28.5018 22.3137C29.1814 22.1247 29.8005 21.7569 30.297 21.2471C30.7934 20.7374 31.15 20.1035 31.3309 19.409C32 16.8456 32 11.5 32 11.5C32 11.5 32 6.15435 31.3309 3.59097Z" fill="#FF0302"/>
<path d="M13 16V7L21 11.5L13 16Z" fill="#FEFEFE"/>
</svg>
